name analog
datacolumns 19
datarows 23
range 0.492 0.503
endheader
time	ground_force_vx	ground_force_vy	ground_force_vz	ground_force_px	ground_force_py	ground_force_pz	l_ground_force_vx	l_ground_force_vy	l_ground_force_vz	l_ground_force_px	l_ground_force_py	l_ground_force_pz	ground_torque_x	ground_torque_y	ground_torque_z	l_ground_torque_x	l_ground_torque_y	l_ground_torque_z
0.492	-0.0	-0.0	-0.0	-0.0	-0.0	-0.0	-4.030571937561035	3.1203408241271973	-517.3646850585938	-0.0	-0.0	-0.0	-0.0	-0.0	-0.0	174906.3125	-29042.080078125	-4003.583984375
0.4925	-0.0	-0.0	-0.0	-0.0	-0.0	-0.0	-3.055687427520752	2.6789512634277344	-515.8524780273438	-0.0	-0.0	-0.0	-0.0	-0.0	-0.0	175046.859375	-29149.96875	-4114.953125
0.493	-0.0	-0.0	-0.0	-0.0	-0.0	-0.0	-3.371009826660156	2.4436614513397217	-514.72705078125	-0.0	-0.0	-0.0	-0.0	-0.0	-0.0	174721.65625	-29555.484375	-4059.16357421875
0.4935	-0.0	-0.0	-0.0	-0.0	-0.0	-0.0	-3.1543471813201904	2.6989033222198486	-513.2159423828125	-0.0	-0.0	-0.0	-0.0	-0.0	-0.0	174522.640625	-29744.34375	-3989.660888671875
0.494	-0.0	-0.0	-0.0	-0.0	-0.0	-0.0	-2.8387451171875	3.2978360652923584	-512.3593139648438	-0.0	-0.0	-0.0	-0.0	-0.0	-0.0	174372.203125	-29862.287109375	-4052.0810546875
0.4945	-0.0	-0.0	-0.0	-0.0	-0.0	-0.0	-2.4362118244171143	3.6707100868225098	-513.60205078125	-0.0	-0.0	-0.0	-0.0	-0.0	-0.0	174285.015625	-30480.787109375	-3883.874267578125
0.495	-0.0	-0.0	-0.0	-0.0	-0.0	-0.0	-1.735398292541504	3.670863628387451	-513.1001586914062	-0.0	-0.0	-0.0	-0.0	-0.0	-0.0	174857.765625	-30571.490234375	-3685.133056640625
0.4955	-0.0	-0.0	-0.0	-0.0	-0.0	-0.0	-1.230622410774231	4.151119232177734	-512.7830200195312	-0.0	-0.0	-0.0	-0.0	-0.0	-0.0	174808.09375	-30852.626953125	-3324.874267578125
0.496	-0.0	-0.0	-0.0	-0.0	-0.0	-0.0	-1.153240203857422	4.23944091796875	-511.23382568359375	-0.0	-0.0	-0.0	-0.0	-0.0	-0.0	174598.171875	-30765.1953125	-3190.56982421875
0.4965	-0.0	-0.0	-0.0	-0.0	-0.0	-0.0	-0.8678929805755615	3.9435458183288574	-511.4781494140625	-0.0	-0.0	-0.0	-0.0	-0.0	-0.0	174341.859375	-30916.1015625	-3103.951416015625
0.497	-0.0	-0.0	-0.0	-0.0	-0.0	-0.0	-0.5131123065948486	4.681049346923828	-510.73345947265625	-0.0	-0.0	-0.0	-0.0	-0.0	-0.0	174484.1875	-30883.94921875	-3075.473876953125
0.4975	-0.0	-0.0	-0.0	-0.0	-0.0	-0.0	-0.4626291990280151	5.110302448272705	-510.3845825195313	-0.0	-0.0	-0.0	-0.0	-0.0	-0.0	174469.328125	-31001.8125	-2971.813720703125
0.498	-0.0	-0.0	-0.0	-0.0	-0.0	-0.0	-0.9061198234558104	6.182518005371094	-510.55950927734375	-0.0	-0.0	-0.0	-0.0	-0.0	-0.0	174504.578125	-31030.09765625	-3126.512939453125
0.4985	-0.0	-0.0	-0.0	-0.0	-0.0	-0.0	-1.368560791015625	7.406165599822998	-511.78167724609375	-0.0	-0.0	-0.0	-0.0	-0.0	-0.0	174819.78125	-31205.0625	-3344.792236328125
0.499	-0.0	-0.0	-0.0	-0.0	-0.0	-0.0	-1.7930880784988403	9.05955410003662	-511.5071411132813	-0.0	-0.0	-0.0	-0.0	-0.0	-0.0	175200.171875	-31220.08984375	-3471.556396484375
0.4995	-0.0	-0.0	-0.0	-0.0	-0.0	-0.0	-1.723105549812317	10.636037826538086	-512.1637573242188	-0.0	-0.0	-0.0	-0.0	-0.0	-0.0	174995.703125	-31552.7109375	-3416.175048828125
0.5	-0.0	-0.0	-0.0	-0.0	-0.0	-0.0	-1.4568287134170532	12.346389770507812	-509.5596618652344	-0.0	-0.0	-0.0	-0.0	-0.0	-0.0	174423.4375	-31088.783203125	-3335.76318359375
0.5005000000000001	-0.0	-0.0	-0.0	-0.0	-0.0	-0.0	-0.7797277569770813	12.89496612548828	-505.5898132324219	-0.0	-0.0	-0.0	-0.0	-0.0	-0.0	174077.765625	-31640.00390625	-3063.61083984375
0.501	-0.0	-0.0	-0.0	-0.0	-0.0	-0.0	0.0142843797802925	13.141406059265137	-503.6793518066406	-0.0	-0.0	-0.0	-0.0	-0.0	-0.0	173388.6875	-31820.029296875	-2542.982666015625
0.5015000000000001	-0.0	-0.0	-0.0	-0.0	-0.0	-0.0	0.617038905620575	13.737367630004885	-502.267822265625	-0.0	-0.0	-0.0	-0.0	-0.0	-0.0	172461.0	-31784.42578125	-2102.21875
0.502	-0.0	-0.0	-0.0	-0.0	-0.0	-0.0	0.5656037330627441	13.266629219055176	-498.4573059082031	-0.0	-0.0	-0.0	-0.0	-0.0	-0.0	171328.875	-31509.669921875	-1872.429931640625
0.5025000000000001	-0.0	-0.0	-0.0	-0.0	-0.0	-0.0	0.458685427904129	12.80339527130127	-494.7478637695313	-0.0	-0.0	-0.0	-0.0	-0.0	-0.0	170282.125	-31225.787109375	-1751.659912109375
0.503	-0.0	-0.0	-0.0	-0.0	-0.0	-0.0	0.3210854530334472	12.118308067321776	-490.3530578613281	-0.0	-0.0	-0.0	-0.0	-0.0	-0.0	168536.890625	-30991.849609375	-1551.4742431640625
